<svg id="SVGDoc" width="187" height="54" xmlns="http://www.w3.org/2000/svg" version="1.1" xmlns:xlink="http://www.w3.org/1999/xlink" xmlns:avocode="https://avocode.com/" viewBox="0 0 187 54"><defs><path d="M1251.99997,939.99997h162c2.76148,0 5.00013,1.78261 5.00013,3.98163v28.66653c0,2.19902 -2.23865,3.98144 -5.00013,3.98144h-162c-1.48498,0 -12.00004,6.37049 -12.00004,6.37049c0,0 7.0001,-9.33548 7.0001,-10.35193v-28.66653c0,-2.19902 2.23846,-3.98163 4.99994,-3.98163z" id="Path-0"/><mask id="Mask1361" x="-1.000558659217877" y="-1.0023255813953489" width="2.001117318435754" height="2.0046511627906978"><rect width="179.2" height="43.2" x="1239.9" y="939.9" fill="#ffffff"></rect><use xlink:href="#Path-0" fill="#000000"/></mask><filter id="Filter1365" width="211" height="76" x="1224" y="924" filterUnits="userSpaceOnUse"><feOffset dx="0" dy="1" result="FeOffset1366Out" in="SourceGraphic"></feOffset><feGaussianBlur stdDeviation="2.3600000000000003 2.3600000000000003" result="FeGaussianBlur1367Out" in="FeOffset1366Out"></feGaussianBlur></filter><mask id="Mask1372" x="-1.0016759776536313" y="-1.0069767441860464" width="2.0033519553072625" height="2.013953488372093"><rect width="179.6" height="43.6" x="1239.7" y="939.7" fill="#ffffff"></rect><use xlink:href="#Path-0" fill="#000000"/></mask><filter id="Filter1376" width="209" height="76" x="1225" y="925" filterUnits="userSpaceOnUse"><feOffset dx="0" dy="3" result="FeOffset1377Out" in="SourceGraphic"></feOffset><feGaussianBlur stdDeviation="1.8800000000000001 1.8800000000000001" result="FeGaussianBlur1378Out" in="FeOffset1377Out"></feGaussianBlur></filter></defs><desc>Generated with Avocode.</desc><g transform="matrix(1,0,0,1,-1237,-936)"><g><title>Rounded Rectangle 798</title><g filter="url(#Filter1365)"><use xlink:href="#Path-0" fill="none" stroke="#000000" stroke-opacity="0.16" stroke-width="0.2" mask="url(&quot;#Mask1361&quot;)"/><use xlink:href="#Path-0" fill="#000000" fill-opacity="0.16"/></g><g filter="url(#Filter1376)"><use xlink:href="#Path-0" fill="none" stroke="#000000" stroke-opacity="0.24" stroke-width="0.6" mask="url(&quot;#Mask1372&quot;)"/><use xlink:href="#Path-0" fill="#000000" fill-opacity="0.24"/></g><use xlink:href="#Path-0" fill="#ffffff" fill-opacity="1"/></g></g></svg>